QuixoticSeven-Light.ufo
<glyph name="quotesingle" format="2">
  <advance width="583"/>
  <unicode hex="0027"/>
  <outline>
    <contour>
      <point x="106.0" y="414.0" type="line" smooth="yes"/>
      <point x="78.0" y="442.0" type="line" smooth="yes"/>
      <point x="78.0" y="730.0" type="line" smooth="yes"/>
      <point x="106.0" y="758.0" type="line" smooth="yes"/>
      <point x="134.0" y="730.0" type="line" smooth="yes"/>
      <point x="134.0" y="442.0" type="line" smooth="yes"/>
    </contour>
  </outline>
</glyph>
<glyph name="comma" format="2">
  <advance width="633"/>
  <unicode hex="002C"/>
  <outline>
    <contour>
      <point x="130.0" y="42.0" type="line" smooth="yes"/>
      <point x="102.0" y="70.0" type="line" smooth="yes"/>
      <point x="102.0" y="358.0" type="line" smooth="yes"/>
      <point x="130.0" y="386.0" type="line" smooth="yes"/>
      <point x="158.0" y="358.0" type="line" smooth="yes"/>
      <point x="158.0" y="70.0" type="line" smooth="yes"/>
    </contour>
  </outline>
</glyph>
<glyph name="hyphen" format="2">
  <advance width="633"/>
  <unicode hex="002D"/>
  <outline>
    <contour>
      <point x="144.0" y="400.0" type="line" smooth="yes"/>
      <point x="172.0" y="428.0" type="line" smooth="yes"/>
      <point x="461.0" y="428.0" type="line" smooth="yes"/>
      <point x="489.0" y="400.0" type="line" smooth="yes"/>
      <point x="461.0" y="372.0" type="line" smooth="yes"/>
      <point x="172.0" y="372.0" type="line" smooth="yes"/>
    </contour>
  </outline>
</glyph>
<glyph name="period" format="2">
  <advance height="970"/>
  <unicode hex="002E"/>
  <outline>
    <contour>
      <point x="-35.0" y="-30.0" type="curve" smooth="yes"/>
      <point x="-35.0" y="-11.0"/>
      <point x="-19.0" y="5.0"/>
      <point x="0.0" y="5.0" type="curve" smooth="yes"/>
      <point x="19.0" y="5.0"/>
      <point x="35.0" y="-11.0"/>
      <point x="35.0" y="-30.0" type="curve" smooth="yes"/>
      <point x="35.0" y="-49.0"/>
      <point x="19.0" y="-65.0"/>
      <point x="0.0" y="-65.0" type="curve" smooth="yes"/>
      <point x="-19.0" y="-65.0"/>
      <point x="-35.0" y="-49.0"/>
    </contour>
  </outline>
</glyph>
<glyph name="colon" format="2">
  <advance width="211"/>
  <unicode hex="003A"/>
  <outline>
    <contour>
      <point x="70.0" y="240.0" type="curve" smooth="yes"/>
      <point x="70.0" y="259.0"/>
      <point x="86.0" y="275.0"/>
      <point x="105.0" y="275.0" type="curve" smooth="yes"/>
      <point x="124.0" y="275.0"/>
      <point x="140.0" y="259.0"/>
      <point x="140.0" y="240.0" type="curve" smooth="yes"/>
      <point x="140.0" y="221.0"/>
      <point x="124.0" y="205.0"/>
      <point x="105.0" y="205.0" type="curve" smooth="yes"/>
      <point x="86.0" y="205.0"/>
      <point x="70.0" y="221.0"/>
    </contour>
    <contour>
      <point x="70.0" y="560.0" type="curve" smooth="yes"/>
      <point x="70.0" y="579.0"/>
      <point x="86.0" y="595.0"/>
      <point x="105.0" y="595.0" type="curve" smooth="yes"/>
      <point x="124.0" y="595.0"/>
      <point x="140.0" y="579.0"/>
      <point x="140.0" y="560.0" type="curve" smooth="yes"/>
      <point x="140.0" y="541.0"/>
      <point x="124.0" y="525.0"/>
      <point x="105.0" y="525.0" type="curve" smooth="yes"/>
      <point x="86.0" y="525.0"/>
      <point x="70.0" y="541.0"/>
    </contour>
  </outline>
</glyph>
<glyph name="semicolon" format="2">
  <advance width="633"/>
  <unicode hex="003B"/>
  <outline>
    <contour>
      <point x="130.0" y="42.0" type="line" smooth="yes"/>
      <point x="102.0" y="70.0" type="line" smooth="yes"/>
      <point x="102.0" y="358.0" type="line" smooth="yes"/>
      <point x="130.0" y="386.0" type="line" smooth="yes"/>
      <point x="158.0" y="358.0" type="line" smooth="yes"/>
      <point x="158.0" y="70.0" type="line" smooth="yes"/>
    </contour>
    <contour>
      <point x="489.0" y="772.0" type="line" smooth="yes"/>
      <point x="461.0" y="744.0" type="line" smooth="yes"/>
      <point x="172.0" y="744.0" type="line" smooth="yes"/>
      <point x="144.0" y="772.0" type="line" smooth="yes"/>
      <point x="172.0" y="800.0" type="line" smooth="yes"/>
      <point x="461.0" y="800.0" type="line" smooth="yes"/>
    </contour>
  </outline>
</glyph>
<glyph name="equal" format="2">
  <advance width="583"/>
  <unicode hex="003D"/>
  <outline>
    <contour>
      <point x="120.0" y="400.0" type="line" smooth="yes"/>
      <point x="148.0" y="428.0" type="line" smooth="yes"/>
      <point x="435.0" y="428.0" type="line" smooth="yes"/>
      <point x="463.0" y="400.0" type="line" smooth="yes"/>
      <point x="435.0" y="372.0" type="line" smooth="yes"/>
      <point x="148.0" y="372.0" type="line" smooth="yes"/>
    </contour>
    <contour>
      <point x="120.0" y="28.0" type="line" smooth="yes"/>
      <point x="148.0" y="56.0" type="line" smooth="yes"/>
      <point x="435.0" y="56.0" type="line" smooth="yes"/>
      <point x="463.0" y="28.0" type="line" smooth="yes"/>
      <point x="435.0" y="0.0" type="line" smooth="yes"/>
      <point x="148.0" y="0.0" type="line" smooth="yes"/>
    </contour>
  </outline>
</glyph>
<glyph name="question" format="2">
  <advance width="633"/>
  <unicode hex="003F"/>
  <outline>
    <contour>
      <point x="144.0" y="400.0" type="line" smooth="yes"/>
      <point x="172.0" y="428.0" type="line" smooth="yes"/>
      <point x="461.0" y="428.0" type="line" smooth="yes"/>
      <point x="489.0" y="400.0" type="line" smooth="yes"/>
      <point x="461.0" y="372.0" type="line" smooth="yes"/>
      <point x="172.0" y="372.0" type="line" smooth="yes"/>
    </contour>
    <contour>
      <point x="130.0" y="42.0" type="line" smooth="yes"/>
      <point x="102.0" y="70.0" type="line" smooth="yes"/>
      <point x="102.0" y="358.0" type="line" smooth="yes"/>
      <point x="130.0" y="386.0" type="line" smooth="yes"/>
      <point x="158.0" y="358.0" type="line" smooth="yes"/>
      <point x="158.0" y="70.0" type="line" smooth="yes"/>
    </contour>
    <contour>
      <point x="503.0" y="414.0" type="line" smooth="yes"/>
      <point x="475.0" y="442.0" type="line" smooth="yes"/>
      <point x="475.0" y="730.0" type="line" smooth="yes"/>
      <point x="503.0" y="758.0" type="line" smooth="yes"/>
      <point x="531.0" y="730.0" type="line" smooth="yes"/>
      <point x="531.0" y="442.0" type="line" smooth="yes"/>
    </contour>
    <contour>
      <point x="489.0" y="772.0" type="line" smooth="yes"/>
      <point x="461.0" y="744.0" type="line" smooth="yes"/>
      <point x="172.0" y="744.0" type="line" smooth="yes"/>
      <point x="144.0" y="772.0" type="line" smooth="yes"/>
      <point x="172.0" y="800.0" type="line" smooth="yes"/>
      <point x="461.0" y="800.0" type="line" smooth="yes"/>
    </contour>
  </outline>
</glyph>
<glyph name="A" format="2">
  <advance width="583"/>
  <unicode hex="0041"/>
  <outline>
    <contour>
      <point x="120.0" y="400.0" type="line" smooth="yes"/>
      <point x="148.0" y="428.0" type="line" smooth="yes"/>
      <point x="435.0" y="428.0" type="line" smooth="yes"/>
      <point x="463.0" y="400.0" type="line" smooth="yes"/>
      <point x="435.0" y="372.0" type="line" smooth="yes"/>
      <point x="148.0" y="372.0" type="line" smooth="yes"/>
    </contour>
    <contour>
      <point x="106.0" y="414.0" type="line" smooth="yes"/>
      <point x="78.0" y="442.0" type="line" smooth="yes"/>
      <point x="78.0" y="730.0" type="line" smooth="yes"/>
      <point x="106.0" y="758.0" type="line" smooth="yes"/>
      <point x="134.0" y="730.0" type="line" smooth="yes"/>
      <point x="134.0" y="442.0" type="line" smooth="yes"/>
    </contour>
    <contour>
      <point x="106.0" y="42.0" type="line" smooth="yes"/>
      <point x="78.0" y="70.0" type="line" smooth="yes"/>
      <point x="78.0" y="358.0" type="line" smooth="yes"/>
      <point x="106.0" y="386.0" type="line" smooth="yes"/>
      <point x="134.0" y="358.0" type="line" smooth="yes"/>
      <point x="134.0" y="70.0" type="line" smooth="yes"/>
    </contour>
    <contour>
      <point x="477.0" y="42.0" type="line" smooth="yes"/>
      <point x="449.0" y="70.0" type="line" smooth="yes"/>
      <point x="449.0" y="358.0" type="line" smooth="yes"/>
      <point x="477.0" y="386.0" type="line" smooth="yes"/>
      <point x="505.0" y="358.0" type="line" smooth="yes"/>
      <point x="505.0" y="70.0" type="line" smooth="yes"/>
    </contour>
    <contour>
      <point x="477.0" y="414.0" type="line" smooth="yes"/>
      <point x="449.0" y="442.0" type="line" smooth="yes"/>
      <point x="449.0" y="730.0" type="line" smooth="yes"/>
      <point x="477.0" y="758.0" type="line" smooth="yes"/>
      <point x="505.0" y="730.0" type="line" smooth="yes"/>
      <point x="505.0" y="442.0" type="line" smooth="yes"/>
    </contour>
    <contour>
      <point x="463.0" y="772.0" type="line" smooth="yes"/>
      <point x="435.0" y="744.0" type="line" smooth="yes"/>
      <point x="148.0" y="744.0" type="line" smooth="yes"/>
      <point x="120.0" y="772.0" type="line" smooth="yes"/>
      <point x="148.0" y="800.0" type="line" smooth="yes"/>
      <point x="435.0" y="800.0" type="line" smooth="yes"/>
    </contour>
  </outline>
</glyph>
<glyph name="asciitilde" format="2">
  <advance width="633"/>
  <unicode hex="007E"/>
  <outline>
    <contour>
      <point x="489.0" y="772.0" type="line" smooth="yes"/>
      <point x="461.0" y="744.0" type="line" smooth="yes"/>
      <point x="172.0" y="744.0" type="line" smooth="yes"/>
      <point x="144.0" y="772.0" type="line" smooth="yes"/>
      <point x="172.0" y="800.0" type="line" smooth="yes"/>
      <point x="461.0" y="800.0" type="line" smooth="yes"/>
    </contour>
  </outline>
</glyph>
<glyph name="quoteleft" format="2">
  <advance width="583"/>
  <unicode hex="2018"/>
  <outline>
    <contour>
      <point x="477.0" y="414.0" type="line" smooth="yes"/>
      <point x="449.0" y="442.0" type="line" smooth="yes"/>
      <point x="449.0" y="730.0" type="line" smooth="yes"/>
      <point x="477.0" y="758.0" type="line" smooth="yes"/>
      <point x="505.0" y="730.0" type="line" smooth="yes"/>
      <point x="505.0" y="442.0" type="line" smooth="yes"/>
    </contour>
  </outline>
</glyph>
<glyph name="unie000" format="2">
  <advance width="633"/>
  <unicode hex="E000"/>
  <outline>
    <contour>
      <point x="598.0" y="0.0" type="curve" smooth="yes"/>
      <point x="598.0" y="19.0"/>
      <point x="614.0" y="35.0"/>
      <point x="633.0" y="35.0" type="curve" smooth="yes"/>
      <point x="652.0" y="35.0"/>
      <point x="668.0" y="19.0"/>
      <point x="668.0" y="0.0" type="curve" smooth="yes"/>
      <point x="668.0" y="-19.0"/>
      <point x="652.0" y="-35.0"/>
      <point x="633.0" y="-35.0" type="curve" smooth="yes"/>
      <point x="614.0" y="-35.0"/>
      <point x="598.0" y="-19.0"/>
    </contour>
    <contour>
      <point x="144.0" y="400.0" type="line" smooth="yes"/>
      <point x="172.0" y="428.0" type="line" smooth="yes"/>
      <point x="461.0" y="428.0" type="line" smooth="yes"/>
      <point x="489.0" y="400.0" type="line" smooth="yes"/>
      <point x="461.0" y="372.0" type="line" smooth="yes"/>
      <point x="172.0" y="372.0" type="line" smooth="yes"/>
    </contour>
    <contour>
      <point x="130.0" y="414.0" type="line" smooth="yes"/>
      <point x="102.0" y="442.0" type="line" smooth="yes"/>
      <point x="102.0" y="730.0" type="line" smooth="yes"/>
      <point x="130.0" y="758.0" type="line" smooth="yes"/>
      <point x="158.0" y="730.0" type="line" smooth="yes"/>
      <point x="158.0" y="442.0" type="line" smooth="yes"/>
    </contour>
    <contour>
      <point x="130.0" y="42.0" type="line" smooth="yes"/>
      <point x="102.0" y="70.0" type="line" smooth="yes"/>
      <point x="102.0" y="358.0" type="line" smooth="yes"/>
      <point x="130.0" y="386.0" type="line" smooth="yes"/>
      <point x="158.0" y="358.0" type="line" smooth="yes"/>
      <point x="158.0" y="70.0" type="line" smooth="yes"/>
    </contour>
    <contour>
      <point x="144.0" y="28.0" type="line" smooth="yes"/>
      <point x="172.0" y="56.0" type="line" smooth="yes"/>
      <point x="461.0" y="56.0" type="line" smooth="yes"/>
      <point x="489.0" y="28.0" type="line" smooth="yes"/>
      <point x="461.0" y="0.0" type="line" smooth="yes"/>
      <point x="172.0" y="0.0" type="line" smooth="yes"/>
    </contour>
    <contour>
      <point x="503.0" y="42.0" type="line" smooth="yes"/>
      <point x="475.0" y="70.0" type="line" smooth="yes"/>
      <point x="475.0" y="358.0" type="line" smooth="yes"/>
      <point x="503.0" y="386.0" type="line" smooth="yes"/>
      <point x="531.0" y="358.0" type="line" smooth="yes"/>
      <point x="531.0" y="70.0" type="line" smooth="yes"/>
    </contour>
    <contour>
      <point x="503.0" y="414.0" type="line" smooth="yes"/>
      <point x="475.0" y="442.0" type="line" smooth="yes"/>
      <point x="475.0" y="730.0" type="line" smooth="yes"/>
      <point x="503.0" y="758.0" type="line" smooth="yes"/>
      <point x="531.0" y="730.0" type="line" smooth="yes"/>
      <point x="531.0" y="442.0" type="line" smooth="yes"/>
    </contour>
    <contour>
      <point x="489.0" y="772.0" type="line" smooth="yes"/>
      <point x="461.0" y="744.0" type="line" smooth="yes"/>
      <point x="172.0" y="744.0" type="line" smooth="yes"/>
      <point x="144.0" y="772.0" type="line" smooth="yes"/>
      <point x="172.0" y="800.0" type="line" smooth="yes"/>
      <point x="461.0" y="800.0" type="line" smooth="yes"/>
    </contour>
  </outline>
</glyph>
<glyph name="unie671" format="2">
  <advance width="583"/>
  <unicode hex="E671"/>
  <outline>
    <contour>
      <point x="106.0" y="42.0" type="line" smooth="yes"/>
      <point x="78.0" y="70.0" type="line" smooth="yes"/>
      <point x="78.0" y="358.0" type="line" smooth="yes"/>
      <point x="106.0" y="386.0" type="line" smooth="yes"/>
      <point x="134.0" y="358.0" type="line" smooth="yes"/>
      <point x="134.0" y="70.0" type="line" smooth="yes"/>
    </contour>
    <contour>
      <point x="477.0" y="42.0" type="line" smooth="yes"/>
      <point x="449.0" y="70.0" type="line" smooth="yes"/>
      <point x="449.0" y="358.0" type="line" smooth="yes"/>
      <point x="477.0" y="386.0" type="line" smooth="yes"/>
      <point x="505.0" y="358.0" type="line" smooth="yes"/>
      <point x="505.0" y="70.0" type="line" smooth="yes"/>
    </contour>
  </outline>
</glyph>
<glyph name="unie672" format="2">
  <advance width="583"/>
  <unicode hex="E672"/>
  <outline>
    <contour>
      <point x="106.0" y="42.0" type="line" smooth="yes"/>
      <point x="78.0" y="70.0" type="line" smooth="yes"/>
      <point x="78.0" y="358.0" type="line" smooth="yes"/>
      <point x="106.0" y="386.0" type="line" smooth="yes"/>
      <point x="134.0" y="358.0" type="line" smooth="yes"/>
      <point x="134.0" y="70.0" type="line" smooth="yes"/>
    </contour>
    <contour>
      <point x="120.0" y="28.0" type="line" smooth="yes"/>
      <point x="148.0" y="56.0" type="line" smooth="yes"/>
      <point x="435.0" y="56.0" type="line" smooth="yes"/>
      <point x="463.0" y="28.0" type="line" smooth="yes"/>
      <point x="435.0" y="0.0" type="line" smooth="yes"/>
      <point x="148.0" y="0.0" type="line" smooth="yes"/>
    </contour>
  </outline>
</glyph>
<glyph name="segment-c" format="2">
  <outline>
    <contour>
      <point x="472.0" y="42.0" type="line" smooth="yes"/>
      <point x="444.0" y="70.0" type="line" smooth="yes"/>
      <point x="444.0" y="358.0" type="line" smooth="yes"/>
      <point x="472.0" y="386.0" type="line" smooth="yes"/>
      <point x="500.0" y="358.0" type="line" smooth="yes"/>
      <point x="500.0" y="70.0" type="line" smooth="yes"/>
    </contour>
  </outline>
</glyph>
<glyph name="segment_b" format="2">
  <outline>
    <contour>
      <point x="503.0" y="414.0" type="line" smooth="yes"/>
      <point x="475.0" y="442.0" type="line" smooth="yes"/>
      <point x="475.0" y="730.0" type="line" smooth="yes"/>
      <point x="503.0" y="758.0" type="line" smooth="yes"/>
      <point x="531.0" y="730.0" type="line" smooth="yes"/>
      <point x="531.0" y="442.0" type="line" smooth="yes"/>
    </contour>
  </outline>
</glyph>
<glyph name="segment_d" format="2">
  <outline>
    <contour>
      <point x="144.0" y="28.0" type="line" smooth="yes"/>
      <point x="172.0" y="56.0" type="line" smooth="yes"/>
      <point x="461.0" y="56.0" type="line" smooth="yes"/>
      <point x="489.0" y="28.0" type="line" smooth="yes"/>
      <point x="461.0" y="0.0" type="line" smooth="yes"/>
      <point x="172.0" y="0.0" type="line" smooth="yes"/>
    </contour>
  </outline>
</glyph>
<glyph name="segment_g" format="2">
  <outline>
    <contour>
      <point x="144.0" y="400.0" type="line" smooth="yes"/>
      <point x="172.0" y="428.0" type="line" smooth="yes"/>
      <point x="461.0" y="428.0" type="line" smooth="yes"/>
      <point x="489.0" y="400.0" type="line" smooth="yes"/>
      <point x="461.0" y="372.0" type="line" smooth="yes"/>
      <point x="172.0" y="372.0" type="line" smooth="yes"/>
    </contour>
  </outline>
</glyph>
<glyph name="segment_h" format="2">
  <outline>
    <contour>
      <point x="178.0" y="724.0" type="line" smooth="yes"/>
      <point x="188.0" y="724.0" type="line" smooth="yes"/>
      <point x="268.0" y="555.0" type="line" smooth="yes"/>
      <point x="268.0" y="448.0" type="line" smooth="yes"/>
      <point x="258.0" y="448.0" type="line" smooth="yes"/>
      <point x="178.0" y="617.0" type="line" smooth="yes"/>
    </contour>
  </outline>
</glyph>
<glyph name="segment_i" format="2">
  <outline>
    <contour>
      <point x="288.0" y="724.0" type="line" smooth="yes"/>
      <point x="344.0" y="724.0" type="line" smooth="yes"/>
      <point x="344.0" y="442.0" type="line" smooth="yes"/>
      <point x="316.0" y="414.0" type="line" smooth="yes"/>
      <point x="288.0" y="442.0" type="line" smooth="yes"/>
    </contour>
  </outline>
</glyph>
<glyph name="segment_j" format="2">
  <outline>
    <contour>
      <point x="424.0" y="724.0" type="line" smooth="yes"/>
      <point x="424.0" y="609.0" type="line" smooth="yes"/>
      <point x="358.0" y="448.0" type="line" smooth="yes"/>
      <point x="348.0" y="448.0" type="line" smooth="yes"/>
      <point x="348.0" y="563.0" type="line" smooth="yes"/>
      <point x="414.0" y="724.0" type="line" smooth="yes"/>
    </contour>
  </outline>
</glyph>
<glyph name="segment_l" format="2">
  <outline>
    <contour>
      <point x="288.0" y="76.0" type="line" smooth="yes"/>
      <point x="288.0" y="358.0" type="line" smooth="yes"/>
      <point x="316.0" y="386.0" type="line" smooth="yes"/>
      <point x="344.0" y="358.0" type="line" smooth="yes"/>
      <point x="344.0" y="76.0" type="line" smooth="yes"/>
    </contour>
  </outline>
</glyph>
